<svg width="1200" height="630" viewBox="0 0 1200 630"
xmlns="http://www.w3.org/2000/svg">
  <defs>
    <linearGradient id="bgGrad" x1="0%" y1="0%" x2="100%" y2="100%">
      <stop offset="0%" style="stop-color:#0a0f1e"/>
      <stop offset="50%" style="stop-color:#0d1a2e"/>
      <stop offset="100%" style="stop-color:#050d1f"/>
    </linearGradient>
    <linearGradient id="accentGrad" x1="0%" y1="0%" x2="100%" y2="0%">
      <stop offset="0%" style="stop-color:#00c853"/>
      <stop offset="100%" style="stop-color:#00e676"/>
    </linearGradient>
  </defs>

  <rect width="1200" height="630" fill="url(#bgGrad)"/>
  <ellipse cx="350" cy="0" rx="500" ry="220" fill="#00c853" opacity="0.08"/>
  <circle cx="1050" cy="120" r="160" fill="none" stroke="#00c853"
    stroke-width="1" opacity="0.12"/>
  <circle cx="1050" cy="120" r="110" fill="none" stroke="#00c853"
    stroke-width="1" opacity="0.10"/>
  <circle cx="1050" cy="120" r="60" fill="#00c853" opacity="0.06"/>
  <line x1="0" y1="500" x2="1200" y2="500" stroke="#00c853"
    stroke-width="1" opacity="0.15"/>

  <rect x="70" y="90" width="180" height="36" rx="18"
    fill="#00c853" opacity="0.15"/>
  <rect x="70" y="90" width="180" height="36" rx="18"
    fill="none" stroke="#00c853" stroke-width="1" opacity="0.4"/>
  <text x="160" y="114" text-anchor="middle"
    font-family="system-ui, sans-serif" font-size="15"
    font-weight="500" fill="#00e676">LiveGood Official</text>

  <text x="70" y="240" font-family="system-ui, sans-serif"
    font-size="72" font-weight="700" fill="#ffffff"
    letter-spacing="-1">Tesla Rodríguez</text>
  <rect x="70" y="262" width="100" height="4" rx="2"
    fill="url(#accentGrad)"/>
  <text x="70" y="320" font-family="system-ui, sans-serif"
    font-size="36" font-weight="400" fill="#00e676">LiveGood
  </text>
  <text x="230" y="320" font-family="system-ui, sans-serif"
    font-size="36" font-weight="300" fill="#94a3b8">
    — Distribuidora Oficial</text>
  <text x="70" y="375" font-family="system-ui, sans-serif"
    font-size="22" font-weight="400" fill="#64748b">
    Suplementos premium al precio de coste · Desde $9.95/mes
  </text>

  <rect x="70" y="430" width="320" height="50" rx="25"
    fill="#00c853" opacity="0.12"/>
  <rect x="70" y="430" width="320" height="50" rx="25"
    fill="none" stroke="#00c853" stroke-width="1" opacity="0.35"/>
  <text x="230" y="462" text-anchor="middle"
    font-family="system-ui, sans-serif" font-size="18"
    font-weight="500" fill="#00e676">
    Únete hoy · Registro $40 · $9.95/mes
  </text>

  <text x="1130" y="462" text-anchor="end"
    font-family="system-ui, monospace" font-size="14"
    fill="#334155">livegood.netlify.app</text>
</svg>
